{"glyphs":{"0":{"ha":1389,"x_min":0,"x_max":1215,"o":"m 347 1042 l 347 347 l 521 347 l 521 174 l 868 174 l 868 868 l 694 868 l 694 1042 l 347 1042 m 0 868 l 174 868 l 174 1042 l 347 1042 l 347 1215 l 868 1215 l 868 1042 l 1042 1042 l 1042 868 l 1215 868 l 1215 347 l 1042 347 l 1042 174 l 868 174 l 868 0 l 347 0 l 347 174 l 174 174 l 174 347 l 0 347 l 0 868 z "},"1":{"ha":1389,"x_min":174,"x_max":1215,"o":"m 868 1215 l 868 174 l 1215 174 l 1215 0 l 174 0 l 174 174 l 521 174 l 521 868 l 347 868 l 347 1042 l 521 1042 l 521 1215 l 868 1215 z "},"2":{"ha":1389,"x_min":0,"x_max":1215,"o":"m 0 347 l 174 347 l 174 521 l 347 521 l 347 694 l 694 694 l 694 868 l 868 868 l 868 1042 l 347 1042 l 347 868 l 0 868 l 0 1042 l 174 1042 l 174 1215 l 1042 1215 l 1042 1042 l 1215 1042 l 1215 694 l 1042 694 l 1042 521 l 868 521 l 868 347 l 521 347 l 521 174 l 1215 174 l 1215 0 l 0 0 l 0 347 z "},"3":{"ha":1389,"x_min":0,"x_max":1215,"o":"m 0 347 l 347 347 l 347 174 l 868 174 l 868 521 l 347 521 l 347 694 l 521 694 l 521 868 l 694 868 l 694 1042 l 174 1042 l 174 1215 l 1215 1215 l 1215 1042 l 1042 1042 l 1042 868 l 868 868 l 868 694 l 1042 694 l 1042 521 l 1215 521 l 1215 174 l 1042 174 l 1042 0 l 174 0 l 174 174 l 0 174 l 0 347 z "},"4":{"ha":1389,"x_min":0,"x_max":1215,"o":"m 347 694 l 347 521 l 694 521 l 694 868 l 521 868 l 521 694 l 347 694 m 0 694 l 174 694 l 174 868 l 347 868 l 347 1042 l 521 1042 l 521 1215 l 1042 1215 l 1042 521 l 1215 521 l 1215 347 l 1042 347 l 1042 0 l 694 0 l 694 347 l 0 347 l 0 694 z "},"5":{"ha":1389,"x_min":0,"x_max":1215,"o":"m 0 347 l 347 347 l 347 174 l 868 174 l 868 694 l 0 694 l 0 1215 l 1042 1215 l 1042 1042 l 347 1042 l 347 868 l 1042 868 l 1042 694 l 1215 694 l 1215 174 l 1042 174 l 1042 0 l 174 0 l 174 174 l 0 174 l 0 347 z "},"6":{"ha":1389,"x_min":0,"x_max":1215,"o":"m 347 521 l 347 174 l 868 174 l 868 521 l 347 521 m 0 868 l 174 868 l 174 1042 l 347 1042 l 347 1215 l 1042 1215 l 1042 1042 l 521 1042 l 521 868 l 347 868 l 347 694 l 1042 694 l 1042 521 l 1215 521 l 1215 174 l 1042 174 l 1042 0 l 174 0 l 174 174 l 0 174 l 0 868 z "},"7":{"ha":1389,"x_min":0,"x_max":1215,"o":"m 0 1215 l 1215 1215 l 1215 868 l 1042 868 l 1042 694 l 868 694 l 868 521 l 694 521 l 694 0 l 347 0 l 347 521 l 521 521 l 521 694 l 694 694 l 694 868 l 868 868 l 868 1042 l 347 1042 l 347 868 l 0 868 l 0 1215 z "},"8":{"ha":1389,"x_min":0,"x_max":1215,"o":"m 174 521 l 174 174 l 868 174 l 868 347 l 521 347 l 521 521 l 174 521 m 347 1042 l 347 868 l 521 868 l 521 694 l 868 694 l 868 1042 l 347 1042 m 0 521 l 174 521 l 174 694 l 0 694 l 0 1042 l 174 1042 l 174 1215 l 868 1215 l 868 1042 l 1042 1042 l 1042 694 l 868 694 l 868 521 l 1215 521 l 1215 174 l 1042 174 l 1042 0 l 174 0 l 174 174 l 0 174 l 0 521 z "},"9":{"ha":1389,"x_min":0,"x_max":1215,"o":"m 347 1042 l 347 694 l 868 694 l 868 1042 l 347 1042 m 0 1042 l 174 1042 l 174 1215 l 1042 1215 l 1042 1042 l 1215 1042 l 1215 347 l 1042 347 l 1042 174 l 868 174 l 868 0 l 174 0 l 174 174 l 694 174 l 694 347 l 868 347 l 868 521 l 174 521 l 174 694 l 0 694 l 0 1042 z "},"\u0000":{"ha":1389,"x_min":0,"x_max":0,"o":""},"\f":{"ha":1389,"x_min":0,"x_max":0,"o":""}," ":{"ha":1389,"x_min":0,"x_max":0,"o":""},"!":{"ha":1389,"x_min":0,"x_max":1042,"o":"m 0 174 l 174 174 l 174 0 l 0 0 l 0 174 m 1042 1215 l 1042 868 l 868 868 l 868 694 l 694 694 l 694 521 l 521 521 l 521 347 l 347 347 l 347 694 l 521 694 l 521 1042 l 694 1042 l 694 1215 l 1042 1215 z "},"\"":{"ha":1389,"x_min":0,"x_max":1042,"o":"m 0 868 l 174 868 l 174 1215 l 521 1215 l 521 868 l 694 868 l 694 1215 l 1042 1215 l 1042 868 l 868 868 l 868 694 l 521 694 l 521 868 l 347 868 l 347 694 l 0 694 l 0 868 z "},"#":{"ha":1389,"x_min":174,"x_max":1042,"o":"m 521 694 l 521 521 l 694 521 l 694 694 l 521 694 m 521 1215 l 521 868 l 694 868 l 694 1215 l 868 1215 l 868 868 l 1042 868 l 1042 694 l 868 694 l 868 521 l 1042 521 l 1042 347 l 868 347 l 868 0 l 694 0 l 694 347 l 521 347 l 521 0 l 347 0 l 347 347 l 174 347 l 174 521 l 347 521 l 347 694 l 174 694 l 174 868 l 347 868 l 347 1215 l 521 1215 z "},"$":{"ha":1389,"x_min":174,"x_max":1042,"o":"m 347 868 l 347 694 l 521 694 l 521 868 l 347 868 m 694 521 l 694 347 l 868 347 l 868 521 l 694 521 m 694 1215 l 694 1042 l 1042 1042 l 1042 868 l 694 868 l 694 694 l 868 694 l 868 521 l 1042 521 l 1042 347 l 868 347 l 868 174 l 694 174 l 694 0 l 521 0 l 521 174 l 174 174 l 174 347 l 521 347 l 521 521 l 347 521 l 347 694 l 174 694 l 174 868 l 347 868 l 347 1042 l 521 1042 l 521 1215 l 694 1215 z "},"%":{"ha":1389,"x_min":0,"x_max":868,"o":"m 0 1215 l 347 1215 l 347 868 l 0 868 l 0 1215 m 521 347 l 868 347 l 868 0 l 521 0 l 521 347 m 0 347 l 174 347 l 174 521 l 347 521 l 347 694 l 521 694 l 521 868 l 694 868 l 694 1042 l 868 1042 l 868 868 l 694 868 l 694 694 l 521 694 l 521 521 l 347 521 l 347 347 l 174 347 l 174 174 l 0 174 l 0 347 z "},"&":{"ha":1389,"x_min":0,"x_max":1215,"o":"m 174 521 l 174 174 l 694 174 l 694 347 l 521 347 l 521 521 l 174 521 m 347 1042 l 347 868 l 521 868 l 521 694 l 694 694 l 694 1042 l 347 1042 m 0 521 l 174 521 l 174 1042 l 347 1042 l 347 1215 l 694 1215 l 694 1042 l 868 1042 l 868 694 l 694 694 l 694 521 l 868 521 l 868 347 l 1042 347 l 1042 521 l 1215 521 l 1215 347 l 1042 347 l 1042 174 l 1215 174 l 1215 0 l 1042 0 l 1042 174 l 868 174 l 857 0 l 174 0 l 174 174 l 0 174 l 0 521 z "},"'":{"ha":1389,"x_min":174,"x_max":521,"o":"m 521 1215 l 521 694 l 347 694 l 347 521 l 174 521 l 174 694 l 347 694 l 347 868 l 174 868 l 174 1215 l 521 1215 z "},"(":{"ha":1389,"x_min":347,"x_max":868,"o":"m 868 1215 l 868 1042 l 694 1042 l 694 174 l 868 174 l 868 0 l 521 0 l 521 174 l 347 174 l 347 1042 l 521 1042 l 521 1215 l 868 1215 z "},")":{"ha":1389,"x_min":347,"x_max":868,"o":"m 694 1215 l 694 1042 l 868 1031 l 868 174 l 694 174 l 694 0 l 347 0 l 347 174 l 521 174 l 521 1042 l 347 1042 l 347 1215 l 694 1215 z "},"*":{"ha":1389,"x_min":174,"x_max":1042,"o":"m 174 868 l 347 868 l 347 694 l 521 694 l 521 1042 l 694 1042 l 694 694 l 868 694 l 868 868 l 1042 868 l 1042 694 l 868 694 l 868 521 l 1042 521 l 1042 347 l 868 347 l 868 521 l 694 521 l 694 174 l 521 174 l 521 521 l 347 521 l 347 347 l 174 347 l 174 521 l 347 521 l 347 694 l 174 694 l 174 868 z "},"+":{"ha":1389,"x_min":174,"x_max":1042,"o":"m 521 1042 l 694 1042 l 694 694 l 1042 694 l 1042 521 l 694 521 l 694 174 l 521 174 l 521 521 l 174 521 l 174 694 l 521 694 l 521 1042 z "},",":{"ha":1389,"x_min":174,"x_max":694,"o":"m 347 521 l 694 521 l 694 174 l 521 174 l 521 0 l 174 0 l 174 174 l 347 174 l 347 521 z "},"-":{"ha":1389,"x_min":174,"x_max":1042,"o":"m 174 694 l 1042 694 l 1042 521 l 174 521 l 174 694 z "},".":{"ha":1389,"x_min":347,"x_max":694,"o":"m 347 347 l 694 347 l 694 0 l 347 0 l 347 347 z "},"/":{"ha":1389,"x_min":0,"x_max":1215,"o":"m 0 174 l 174 174 l 174 347 l 347 347 l 347 521 l 521 521 l 521 694 l 694 694 l 694 868 l 868 868 l 868 1042 l 1042 1042 l 1042 1215 l 1215 1215 l 1215 1042 l 1042 1042 l 1042 868 l 868 868 l 868 694 l 694 694 l 694 521 l 521 521 l 521 347 l 347 347 l 347 174 l 174 174 l 174 0 l 0 0 l 0 174 z "},":":{"ha":1389,"x_min":347,"x_max":694,"o":"m 347 521 l 694 521 l 694 174 l 347 174 l 347 521 m 347 1042 l 694 1042 l 694 694 l 347 694 l 347 1042 z "},";":{"ha":1389,"x_min":174,"x_max":694,"o":"m 347 521 l 694 521 l 694 174 l 521 174 l 521 0 l 174 0 l 174 174 l 347 174 l 347 521 m 347 1042 l 694 1042 l 694 694 l 347 694 l 347 1042 z "},"<":{"ha":1389,"x_min":174,"x_max":868,"o":"m 868 1215 l 868 1042 l 694 1042 l 694 868 l 521 868 l 521 694 l 347 694 l 347 521 l 521 521 l 521 347 l 694 347 l 694 174 l 868 174 l 868 0 l 694 0 l 694 174 l 521 174 l 521 347 l 347 347 l 347 521 l 174 521 l 174 694 l 347 694 l 347 868 l 521 868 l 521 1042 l 694 1042 l 694 1215 l 868 1215 z "},"=":{"ha":1389,"x_min":174,"x_max":1042,"o":"m 174 521 l 1042 521 l 1042 347 l 174 347 l 174 521 m 174 868 l 1042 868 l 1042 694 l 174 694 l 174 868 z "},">":{"ha":1389,"x_min":347,"x_max":1042,"o":"m 521 1215 l 521 1042 l 694 1042 l 694 868 l 868 868 l 868 694 l 1042 694 l 1042 521 l 868 521 l 868 347 l 694 347 l 694 174 l 521 174 l 521 0 l 347 0 l 347 174 l 521 174 l 521 347 l 694 347 l 694 521 l 868 521 l 868 694 l 694 694 l 694 868 l 521 868 l 521 1042 l 347 1042 l 347 1215 l 521 1215 z "},"?":{"ha":1389,"x_min":0,"x_max":1215,"o":"m 347 174 l 868 174 l 868 0 l 347 0 l 347 174 m 0 1042 l 174 1042 l 174 1215 l 1042 1215 l 1042 1042 l 1215 1042 l 1215 694 l 1042 694 l 1042 521 l 868 521 l 868 347 l 347 347 l 347 521 l 694 521 l 694 694 l 868 694 l 868 1042 l 347 1042 l 347 694 l 0 694 l 0 1042 z "},"@":{"ha":1389,"x_min":0,"x_max":1215,"o":"m 174 521 l 174 174 l 521 174 l 521 521 l 174 521 m 0 521 l 174 521 l 174 694 l 694 694 l 694 174 l 1042 174 l 1042 1042 l 347 1042 l 347 868 l 174 868 l 174 1042 l 347 1042 l 347 1215 l 1042 1215 l 1042 1042 l 1215 1031 l 1215 174 l 1042 174 l 1042 0 l 174 0 l 174 174 l 0 174 l 0 521 z "},"A":{"ha":1389,"x_min":0,"x_max":1215,"o":"m 347 868 l 347 521 l 868 521 l 868 868 l 694 868 l 694 1042 l 521 1042 l 521 868 l 347 868 m 0 868 l 174 868 l 174 1042 l 347 1042 l 347 1215 l 868 1215 l 868 1042 l 1042 1042 l 1042 868 l 1215 868 l 1215 0 l 868 0 l 868 347 l 347 347 l 347 0 l 0 0 l 0 868 z "},"B":{"ha":1389,"x_min":0,"x_max":1215,"o":"m 347 521 l 347 174 l 868 174 l 868 521 l 347 521 m 347 1042 l 347 694 l 868 694 l 868 1042 l 347 1042 m 0 1215 l 1042 1215 l 1042 1042 l 1215 1042 l 1215 694 l 1042 694 l 1042 521 l 1215 521 l 1215 174 l 1042 174 l 1042 0 l 0 0 l 0 1215 z "},"C":{"ha":1389,"x_min":0,"x_max":1215,"o":"m 0 868 l 174 868 l 174 1042 l 347 1042 l 347 1215 l 1042 1215 l 1042 1042 l 1215 1042 l 1215 868 l 868 868 l 868 1042 l 521 1042 l 521 868 l 347 868 l 347 347 l 521 347 l 521 174 l 868 174 l 868 347 l 1215 347 l 1215 174 l 1042 174 l 1042 0 l 347 0 l 347 174 l 174 174 l 174 347 l 0 347 l 0 868 z "},"D":{"ha":1389,"x_min":0,"x_max":1215,"o":"m 347 1042 l 347 174 l 694 174 l 694 347 l 868 347 l 868 868 l 694 868 l 694 1042 l 347 1042 m 0 1215 l 868 1215 l 868 1042 l 1042 1042 l 1042 868 l 1215 868 l 1215 347 l 1042 347 l 1042 174 l 868 174 l 868 0 l 0 0 l 0 1215 z "},"E":{"ha":1389,"x_min":174,"x_max":1215,"o":"m 1215 1215 l 1215 1042 l 521 1042 l 521 694 l 1042 694 l 1042 521 l 521 521 l 521 174 l 1215 174 l 1215 0 l 174 0 l 174 1215 l 1215 1215 z "},"F":{"ha":1389,"x_min":0,"x_max":1215,"o":"m 0 1215 l 1215 1215 l 1215 1042 l 347 1042 l 347 694 l 1042 694 l 1042 521 l 347 521 l 347 0 l 0 0 l 0 1215 z "},"G":{"ha":1389,"x_min":0,"x_max":1215,"o":"m 0 868 l 174 868 l 174 1042 l 347 1042 l 347 1215 l 1215 1215 l 1215 1042 l 521 1042 l 521 868 l 347 868 l 347 347 l 521 347 l 521 174 l 868 174 l 868 521 l 694 521 l 694 694 l 1215 694 l 1215 0 l 347 0 l 347 174 l 174 174 l 174 347 l 0 347 l 0 868 z "},"H":{"ha":1389,"x_min":0,"x_max":1215,"o":"m 0 1215 l 347 1215 l 347 694 l 868 694 l 868 1215 l 1215 1215 l 1215 0 l 868 0 l 868 521 l 347 521 l 347 0 l 0 0 l 0 1215 z "},"I":{"ha":1389,"x_min":174,"x_max":1215,"o":"m 1215 1215 l 1215 1042 l 868 1042 l 868 174 l 1215 174 l 1215 0 l 174 0 l 174 174 l 521 174 l 521 1042 l 174 1042 l 174 1215 l 1215 1215 z "},"J":{"ha":1389,"x_min":0,"x_max":1215,"o":"m 0 347 l 347 347 l 347 174 l 868 174 l 868 1215 l 1215 1215 l 1215 174 l 1042 174 l 1042 0 l 174 0 l 174 174 l 0 174 l 0 347 z "},"K":{"ha":1389,"x_min":0,"x_max":1215,"o":"m 0 1215 l 347 1215 l 347 694 l 521 694 l 521 868 l 694 868 l 694 1042 l 868 1042 l 868 1215 l 1215 1215 l 1215 1042 l 1042 1042 l 1042 868 l 868 868 l 868 694 l 694 694 l 694 521 l 868 521 l 868 347 l 1042 347 l 1042 174 l 1215 174 l 1215 0 l 694 0 l 694 174 l 521 174 l 521 347 l 347 347 l 347 0 l 0 0 l 0 1215 z "},"L":{"ha":1389,"x_min":174,"x_max":1215,"o":"m 521 1215 l 521 174 l 1215 174 l 1215 0 l 174 0 l 174 1215 l 521 1215 z "},"M":{"ha":1389,"x_min":0,"x_max":1215,"o":"m 0 1215 l 347 1215 l 347 1042 l 521 1042 l 521 868 l 694 868 l 694 1042 l 868 1042 l 868 1215 l 1215 1215 l 1215 0 l 868 0 l 868 521 l 694 521 l 694 347 l 521 347 l 521 521 l 347 521 l 347 0 l 0 0 l 0 1215 z "},"N":{"ha":1389,"x_min":0,"x_max":1215,"o":"m 0 1215 l 347 1215 l 347 1042 l 521 1042 l 521 868 l 694 868 l 694 694 l 868 694 l 868 1215 l 1215 1215 l 1215 0 l 868 0 l 868 174 l 694 174 l 694 347 l 521 347 l 521 521 l 347 521 l 347 0 l 0 0 l 0 1215 z "},"O":{"ha":1389,"x_min":0,"x_max":1215,"o":"m 347 1042 l 347 174 l 868 174 l 868 1042 l 347 1042 m 0 1042 l 174 1042 l 174 1215 l 1042 1215 l 1042 1042 l 1215 1042 l 1215 174 l 1042 174 l 1042 0 l 174 0 l 174 174 l 0 174 l 0 1042 z "},"P":{"ha":1389,"x_min":0,"x_max":1215,"o":"m 347 1042 l 347 521 l 868 521 l 868 1042 l 347 1042 m 0 1215 l 1042 1215 l 1042 1042 l 1215 1042 l 1215 521 l 1042 521 l 1042 347 l 347 347 l 347 0 l 0 0 l 0 1215 z "},"Q":{"ha":1389,"x_min":0,"x_max":1215,"o":"m 347 1042 l 347 174 l 694 174 l 694 347 l 521 347 l 521 521 l 868 521 l 868 1042 l 347 1042 m 0 1042 l 174 1042 l 174 1215 l 1042 1215 l 1042 1042 l 1215 1042 l 1215 347 l 1042 347 l 1042 174 l 1215 174 l 1215 0 l 1042 0 l 1042 174 l 868 174 l 857 0 l 174 0 l 174 174 l 0 174 l 0 1042 z "},"R":{"ha":1389,"x_min":0,"x_max":1215,"o":"m 347 1042 l 347 521 l 694 521 l 694 694 l 868 694 l 868 1042 l 347 1042 m 0 1215 l 1042 1215 l 1042 1042 l 1215 1042 l 1215 521 l 868 521 l 868 347 l 1042 347 l 1042 174 l 1215 174 l 1215 0 l 694 0 l 694 174 l 521 174 l 521 347 l 347 347 l 347 0 l 0 0 l 0 1215 z "},"S":{"ha":1389,"x_min":0,"x_max":1215,"o":"m 0 347 l 347 347 l 347 174 l 868 174 l 868 521 l 174 521 l 174 694 l 0 694 l 0 1042 l 174 1042 l 174 1215 l 868 1215 l 868 1042 l 1042 1042 l 1042 868 l 694 868 l 694 1042 l 347 1042 l 347 694 l 1042 694 l 1042 521 l 1215 521 l 1215 174 l 1042 174 l 1042 0 l 174 0 l 174 174 l 0 174 l 0 347 z "},"T":{"ha":1389,"x_min":174,"x_max":1215,"o":"m 1215 1215 l 1215 1042 l 868 1042 l 868 0 l 521 0 l 521 1042 l 174 1042 l 174 1215 l 1215 1215 z "},"U":{"ha":1389,"x_min":0,"x_max":1215,"o":"m 0 1215 l 347 1215 l 347 174 l 868 174 l 868 1215 l 1215 1215 l 1215 174 l 1042 174 l 1042 0 l 174 0 l 174 174 l 0 174 l 0 1215 z "},"V":{"ha":1389,"x_min":0,"x_max":1215,"o":"m 0 1215 l 347 1215 l 347 694 l 521 694 l 521 521 l 694 521 l 694 694 l 868 694 l 868 1215 l 1215 1215 l 1215 521 l 1042 521 l 1042 347 l 868 347 l 868 174 l 694 174 l 694 0 l 521 0 l 521 174 l 347 174 l 347 347 l 174 347 l 174 521 l 0 521 l 0 1215 z "},"W":{"ha":1389,"x_min":0,"x_max":1215,"o":"m 0 1215 l 347 1215 l 347 694 l 521 694 l 521 868 l 694 868 l 694 694 l 868 694 l 868 1215 l 1215 1215 l 1215 174 l 1042 174 l 1042 0 l 868 0 l 868 174 l 694 174 l 694 347 l 521 347 l 521 174 l 347 174 l 347 0 l 174 0 l 174 174 l 0 174 l 0 1215 z "},"X":{"ha":1389,"x_min":0,"x_max":1215,"o":"m 0 347 l 174 347 l 174 521 l 347 521 l 347 694 l 174 694 l 174 868 l 0 868 l 0 1215 l 347 1215 l 347 1042 l 521 1042 l 521 868 l 694 868 l 694 1042 l 868 1042 l 868 1215 l 1215 1215 l 1215 868 l 1042 868 l 1042 694 l 868 694 l 868 521 l 1042 521 l 1042 347 l 1215 347 l 1215 0 l 868 0 l 868 174 l 694 174 l 694 347 l 521 347 l 521 174 l 347 174 l 347 0 l 0 0 l 0 347 z "},"Y":{"ha":1389,"x_min":174,"x_max":1215,"o":"m 521 1215 l 521 694 l 868 694 l 868 1215 l 1215 1215 l 1215 694 l 1042 694 l 1042 521 l 868 521 l 868 0 l 521 0 l 521 521 l 347 521 l 347 694 l 174 694 l 174 1215 l 521 1215 z "},"Z":{"ha":1389,"x_min":0,"x_max":1215,"o":"m 0 347 l 174 347 l 174 521 l 347 521 l 347 694 l 521 694 l 521 868 l 694 868 l 694 1042 l 0 1042 l 0 1215 l 1215 1215 l 1215 868 l 1042 868 l 1042 694 l 868 694 l 868 521 l 694 521 l 694 347 l 521 347 l 521 174 l 1215 174 l 1215 0 l 0 0 l 0 347 z "},"[":{"ha":1389,"x_min":347,"x_max":1042,"o":"m 1042 1215 l 1042 1042 l 694 1042 l 694 174 l 1042 174 l 1042 0 l 347 0 l 347 1215 l 1042 1215 z "},"\\":{"ha":1389,"x_min":0,"x_max":1215,"o":"m 0 1215 l 174 1215 l 174 1042 l 347 1042 l 347 868 l 521 868 l 521 694 l 694 694 l 694 521 l 868 521 l 868 347 l 1042 347 l 1042 174 l 1215 174 l 1215 0 l 1042 0 l 1042 174 l 868 174 l 868 347 l 694 347 l 694 521 l 521 521 l 521 694 l 347 694 l 347 868 l 174 868 l 174 1042 l 0 1042 l 0 1215 z "},"]":{"ha":1389,"x_min":174,"x_max":868,"o":"m 868 1215 l 868 0 l 174 0 l 174 174 l 521 174 l 521 1042 l 174 1042 l 174 1215 l 868 1215 z "},"^":{"ha":1389,"x_min":0,"x_max":1215,"o":"m 0 694 l 174 694 l 174 868 l 347 868 l 347 1042 l 521 1042 l 521 1215 l 694 1215 l 694 1042 l 868 1042 l 868 868 l 1042 868 l 1042 694 l 1215 694 l 1215 521 l 1042 521 l 1042 694 l 868 694 l 868 868 l 694 868 l 694 1042 l 521 1042 l 521 868 l 347 868 l 347 694 l 174 694 l 174 521 l 0 521 l 0 694 z "},"_":{"ha":1389,"x_min":0,"x_max":1215,"o":"m 0 174 l 1215 174 l 1215 0 l 0 0 l 0 174 z "},"`":{"ha":1389,"x_min":694,"x_max":1042,"o":"m 1042 1215 l 1042 868 l 868 868 l 868 694 l 1042 694 l 1042 521 l 868 521 l 868 694 l 694 694 l 694 1215 l 1042 1215 z "},"a":{"ha":1389,"x_min":174,"x_max":1215,"o":"m 521 694 l 521 174 l 694 174 l 694 694 l 521 694 m 347 868 l 1042 868 l 1042 174 l 1215 174 l 1215 0 l 868 0 l 868 174 l 694 174 l 694 0 l 347 0 l 347 174 l 174 174 l 174 694 l 347 694 l 347 868 z "},"b":{"ha":1389,"x_min":174,"x_max":1042,"o":"m 521 521 l 521 174 l 694 174 l 694 521 l 521 521 m 521 1215 l 521 694 l 868 694 l 868 521 l 1042 521 l 1042 174 l 868 174 l 868 0 l 174 0 l 174 1215 l 521 1215 z "},"c":{"ha":1389,"x_min":174,"x_max":1042,"o":"m 347 868 l 868 868 l 868 694 l 1042 694 l 1042 521 l 694 521 l 694 694 l 521 694 l 521 521 l 347 521 l 347 347 l 521 347 l 521 174 l 868 174 l 868 347 l 1042 347 l 1042 174 l 868 174 l 868 0 l 347 0 l 347 174 l 174 174 l 174 694 l 347 694 l 347 868 z "},"d":{"ha":1389,"x_min":174,"x_max":1215,"o":"m 521 521 l 521 174 l 694 174 l 694 521 l 521 521 m 1042 1215 l 1042 174 l 1215 174 l 1215 0 l 868 0 l 868 174 l 694 174 l 694 0 l 347 0 l 347 174 l 174 174 l 174 521 l 347 521 l 347 694 l 694 694 l 694 1215 l 1042 1215 z "},"e":{"ha":1389,"x_min":174,"x_max":1042,"o":"m 521 694 l 521 521 l 868 521 l 868 694 l 521 694 m 347 868 l 868 868 l 868 694 l 1042 694 l 1042 347 l 521 347 l 521 174 l 868 174 l 868 0 l 347 0 l 347 174 l 174 174 l 174 694 l 347 694 l 347 868 z "},"f":{"ha":1389,"x_min":174,"x_max":1042,"o":"m 868 1215 l 868 1042 l 1042 1042 l 1042 868 l 868 868 l 868 1042 l 694 1042 l 694 694 l 868 694 l 868 521 l 694 521 l 694 0 l 347 0 l 347 521 l 174 521 l 174 694 l 347 694 l 347 1042 l 521 1042 l 521 1215 l 868 1215 z "},"g":{"ha":1389,"x_min":174,"x_max":1042,"o":"m 347 174 l 347 0 l 694 0 l 694 174 l 347 174 m 521 868 l 521 694 l 694 694 l 694 868 l 521 868 m 347 1042 l 694 1042 l 694 868 l 868 868 l 868 1042 l 1042 1042 l 1042 868 l 868 868 l 868 521 l 521 521 l 521 347 l 1042 347 l 1042 0 l 868 0 l 868 -174 l 347 -174 l 347 0 l 174 0 l 174 347 l 347 347 l 347 521 l 174 521 l 174 868 l 347 868 l 347 1042 z "},"h":{"ha":1389,"x_min":174,"x_max":1042,"o":"m 521 1215 l 521 694 l 868 694 l 868 521 l 1042 521 l 1042 0 l 694 0 l 694 521 l 521 521 l 521 0 l 174 0 l 174 1215 l 521 1215 z "},"i":{"ha":1389,"x_min":347,"x_max":868,"o":"m 347 694 l 868 694 l 868 0 l 521 0 l 521 521 l 347 521 l 347 694 m 521 1042 l 868 1042 l 868 868 l 521 868 l 521 1042 z "},"j":{"ha":1389,"x_min":174,"x_max":1042,"o":"m 174 174 l 347 174 l 347 0 l 694 0 l 694 694 l 1042 694 l 1042 0 l 868 0 l 868 -174 l 347 -174 l 347 0 l 174 0 l 174 174 m 694 1042 l 1042 1042 l 1042 868 l 694 868 l 694 1042 z "},"k":{"ha":1389,"x_min":174,"x_max":1042,"o":"m 521 1215 l 521 521 l 694 521 l 694 694 l 868 694 l 868 868 l 1042 868 l 1042 694 l 868 694 l 868 521 l 694 521 l 694 347 l 868 347 l 868 174 l 1042 174 l 1042 0 l 694 0 l 694 174 l 521 174 l 521 0 l 174 0 l 174 1215 l 521 1215 z "},"l":{"ha":1389,"x_min":347,"x_max":868,"o":"m 868 1215 l 868 0 l 521 0 l 521 1042 l 347 1042 l 347 1215 l 868 1215 z "},"m":{"ha":1389,"x_min":0,"x_max":1215,"o":"m 0 868 l 521 868 l 521 694 l 694 694 l 694 868 l 1042 868 l 1042 694 l 1215 694 l 1215 0 l 868 0 l 868 694 l 694 694 l 694 0 l 521 0 l 521 694 l 347 694 l 347 0 l 0 0 l 0 868 z "},"n":{"ha":1389,"x_min":0,"x_max":1042,"o":"m 0 868 l 174 868 l 174 694 l 347 694 l 347 868 l 868 868 l 868 694 l 1042 694 l 1042 0 l 694 0 l 694 694 l 521 694 l 521 0 l 174 0 l 174 694 l 0 694 l 0 868 z "},"o":{"ha":1389,"x_min":174,"x_max":1042,"o":"m 521 694 l 521 174 l 694 174 l 694 694 l 521 694 m 347 868 l 868 868 l 868 694 l 1042 694 l 1042 174 l 868 174 l 868 0 l 347 0 l 347 174 l 174 174 l 174 694 l 347 694 l 347 868 z "},"p":{"ha":1389,"x_min":174,"x_max":1215,"o":"m 694 694 l 694 347 l 868 347 l 868 694 l 694 694 m 174 868 l 347 868 l 347 694 l 521 694 l 521 868 l 1042 868 l 1042 694 l 1215 694 l 1215 347 l 1042 347 l 1042 174 l 694 174 l 694 -174 l 347 -174 l 347 694 l 174 694 l 174 868 z "},"q":{"ha":1389,"x_min":174,"x_max":1215,"o":"m 521 694 l 521 347 l 694 347 l 694 694 l 521 694 m 347 868 l 868 868 l 868 694 l 1042 694 l 1042 868 l 1215 868 l 1215 694 l 1042 694 l 1042 -174 l 694 -174 l 694 174 l 347 174 l 347 347 l 174 347 l 174 694 l 347 694 l 347 868 z "},"r":{"ha":1389,"x_min":174,"x_max":1215,"o":"m 174 868 l 347 868 l 347 694 l 521 694 l 521 868 l 1042 868 l 1042 694 l 1215 694 l 1215 521 l 1042 521 l 1042 694 l 868 694 l 868 521 l 694 521 l 694 0 l 347 0 l 347 694 l 174 694 l 174 868 z "},"s":{"ha":1389,"x_min":174,"x_max":1042,"o":"m 347 868 l 868 868 l 868 694 l 521 694 l 521 521 l 868 521 l 868 347 l 1042 347 l 1042 174 l 868 174 l 868 0 l 174 0 l 174 174 l 694 174 l 694 347 l 347 347 l 347 521 l 174 521 l 174 694 l 347 694 l 347 868 z "},"t":{"ha":1389,"x_min":174,"x_max":1042,"o":"m 694 1215 l 694 868 l 1042 868 l 1042 694 l 694 694 l 694 174 l 868 174 l 868 0 l 521 0 l 521 174 l 347 174 l 347 694 l 174 694 l 174 868 l 347 868 l 347 1215 l 694 1215 z "},"u":{"ha":1389,"x_min":174,"x_max":1215,"o":"m 174 868 l 521 868 l 521 174 l 694 174 l 694 868 l 1042 868 l 1042 174 l 1215 174 l 1215 0 l 868 0 l 868 174 l 694 174 l 694 0 l 347 0 l 347 174 l 174 174 l 174 868 z "},"v":{"ha":1389,"x_min":174,"x_max":1215,"o":"m 174 868 l 521 868 l 521 521 l 694 521 l 694 347 l 868 347 l 868 521 l 1042 521 l 1042 868 l 1215 868 l 1215 347 l 1042 347 l 1042 174 l 868 174 l 868 0 l 521 0 l 521 174 l 347 174 l 347 521 l 174 521 l 174 868 z "},"w":{"ha":1389,"x_min":0,"x_max":1215,"o":"m 0 868 l 347 868 l 347 174 l 521 174 l 521 521 l 694 521 l 694 174 l 868 174 l 868 868 l 1215 868 l 1215 174 l 1042 174 l 1042 0 l 694 0 l 694 174 l 521 174 l 521 0 l 174 0 l 174 174 l 0 174 l 0 868 z "},"x":{"ha":1389,"x_min":174,"x_max":1215,"o":"m 174 868 l 521 868 l 521 694 l 694 694 l 694 521 l 868 521 l 868 694 l 1042 694 l 1042 868 l 1215 868 l 1215 694 l 1042 694 l 1042 521 l 868 521 l 868 347 l 1042 347 l 1042 174 l 1215 174 l 1215 0 l 694 0 l 694 174 l 521 174 l 521 0 l 174 0 l 174 174 l 521 174 l 521 347 l 347 347 l 347 521 l 174 521 l 174 868 z "},"y":{"ha":1389,"x_min":174,"x_max":1215,"o":"m 174 868 l 521 868 l 521 694 l 694 694 l 694 521 l 868 521 l 868 694 l 1042 694 l 1042 868 l 1215 868 l 1215 694 l 1042 694 l 1042 347 l 868 347 l 868 174 l 694 174 l 694 -174 l 347 -174 l 347 0 l 521 0 l 521 174 l 694 174 l 694 347 l 521 347 l 521 521 l 347 521 l 347 694 l 174 694 l 174 868 z "},"z":{"ha":1389,"x_min":174,"x_max":1215,"o":"m 174 868 l 1215 868 l 1215 694 l 1042 694 l 1042 521 l 868 521 l 868 347 l 694 347 l 694 174 l 1215 174 l 1215 0 l 174 0 l 174 174 l 347 174 l 347 347 l 521 347 l 521 521 l 694 521 l 694 694 l 174 694 l 174 868 z "},"{":{"ha":1389,"x_min":0,"x_max":868,"o":"m 0 694 l 347 694 l 347 1042 l 521 1042 l 521 1215 l 868 1215 l 868 1042 l 694 1042 l 694 694 l 521 694 l 521 521 l 694 521 l 694 174 l 868 174 l 868 0 l 521 0 l 521 174 l 347 174 l 347 521 l 0 521 l 0 694 z "},"|":{"ha":1389,"x_min":521,"x_max":694,"o":"m 521 521 l 694 521 l 694 0 l 521 0 l 521 521 m 694 1215 l 694 694 l 521 694 l 521 1215 l 694 1215 z "},"}":{"ha":1389,"x_min":347,"x_max":1215,"o":"m 694 1215 l 694 1042 l 868 1042 l 868 694 l 1215 694 l 1215 521 l 868 521 l 868 174 l 694 174 l 694 0 l 347 0 l 347 174 l 521 174 l 521 521 l 694 521 l 694 694 l 521 694 l 521 1042 l 347 1042 l 347 1215 l 694 1215 z "},"~":{"ha":1389,"x_min":0,"x_max":1215,"o":"m 0 694 l 174 694 l 174 868 l 521 868 l 521 694 l 694 694 l 694 521 l 1042 521 l 1042 694 l 1215 694 l 1215 521 l 1042 521 l 1042 347 l 694 347 l 694 521 l 521 521 l 521 694 l 174 694 l 174 521 l 0 521 l 0 694 z "}," ":{"ha":1389,"x_min":0,"x_max":0,"o":""},"¡":{"ha":1389,"x_min":0,"x_max":1042,"o":"m 1042 1042 l 868 1042 l 868 1215 l 1042 1215 l 1042 1042 m 0 0 l 0 347 l 174 347 l 174 521 l 347 521 l 347 694 l 521 694 l 521 868 l 694 868 l 694 521 l 521 521 l 521 174 l 347 174 l 347 0 l 0 0 z "},"¢":{"ha":1389,"x_min":174,"x_max":1042,"o":"m 347 868 l 347 347 l 521 347 l 521 868 l 347 868 m 694 1215 l 694 1042 l 868 1042 l 868 868 l 1042 868 l 1042 694 l 868 694 l 868 868 l 694 868 l 694 347 l 868 347 l 868 521 l 1042 521 l 1042 347 l 868 347 l 868 174 l 694 174 l 694 0 l 521 0 l 521 174 l 347 174 l 347 347 l 174 347 l 174 868 l 347 868 l 347 1042 l 521 1042 l 521 1215 l 694 1215 z "},"£":{"ha":1389,"x_min":0,"x_max":1215,"o":"m 0 174 l 174 174 l 174 521 l 0 521 l 0 694 l 174 694 l 174 1042 l 347 1042 l 347 1215 l 1042 1215 l 1042 1042 l 1215 1042 l 1215 868 l 868 868 l 868 1042 l 521 1042 l 521 694 l 868 694 l 868 521 l 521 521 l 521 174 l 868 174 l 868 347 l 1215 347 l 1215 174 l 1042 174 l 1042 0 l 0 0 l 0 174 z "},"¤":{"ha":1389,"x_min":0,"x_max":1215,"o":"m 0 521 l 174 521 l 174 694 l 0 694 l 0 868 l 347 868 l 347 1042 l 521 1042 l 521 1215 l 1042 1215 l 1042 1042 l 1215 1042 l 1215 868 l 1042 868 l 1042 1042 l 694 1042 l 694 868 l 868 868 l 868 694 l 521 694 l 521 521 l 868 521 l 868 347 l 694 347 l 694 174 l 1042 174 l 1042 347 l 1215 347 l 1215 174 l 1042 174 l 1042 0 l 521 0 l 521 174 l 347 174 l 347 347 l 0 347 l 0 521 z "},"¥":{"ha":1389,"x_min":174,"x_max":1215,"o":"m 521 1215 l 521 694 l 868 694 l 868 1215 l 1215 1215 l 1215 694 l 1042 694 l 1042 521 l 868 521 l 868 347 l 1215 347 l 1215 174 l 868 174 l 868 0 l 521 0 l 521 174 l 174 174 l 174 347 l 521 347 l 521 521 l 347 521 l 347 694 l 174 694 l 174 1215 l 521 1215 z "},"¦":{"ha":1389,"x_min":521,"x_max":694,"o":"m 521 521 l 694 521 l 694 0 l 521 0 l 521 521 m 694 1215 l 694 694 l 521 694 l 521 1215 l 694 1215 z "},"§":{"ha":1389,"x_min":0,"x_max":0,"o":""},"¨":{"ha":1389,"x_min":0,"x_max":0,"o":""},"©":{"ha":1389,"x_min":0,"x_max":1389,"o":"m 521 868 l 868 868 l 868 694 l 521 694 l 521 347 l 868 347 l 868 174 l 521 174 l 521 347 l 347 347 l 347 694 l 521 694 l 521 868 m 174 868 l 174 174 l 347 174 l 347 0 l 1042 0 l 1042 174 l 1215 174 l 1215 868 l 1042 868 l 1042 1042 l 347 1042 l 347 868 l 174 868 m 0 868 l 174 868 l 174 1042 l 347 1042 l 358 1215 l 1042 1215 l 1042 1042 l 1215 1042 l 1215 868 l 1389 868 l 1389 174 l 1215 174 l 1215 0 l 1042 0 l 1031 -174 l 347 -174 l 347 0 l 174 0 l 174 174 l 0 174 l 0 868 z "},"ª":{"ha":1389,"x_min":0,"x_max":0,"o":""},"«":{"ha":1389,"x_min":174,"x_max":1215,"o":"m 521 1042 l 694 1042 l 694 868 l 521 868 l 521 694 l 347 694 l 347 521 l 521 521 l 521 347 l 694 347 l 694 174 l 521 174 l 521 347 l 347 347 l 347 521 l 174 521 l 174 694 l 347 694 l 347 868 l 521 868 l 521 1042 m 1042 1042 l 1215 1042 l 1215 868 l 1042 868 l 1042 694 l 868 694 l 868 521 l 1042 521 l 1042 347 l 1215 347 l 1215 174 l 1042 174 l 1042 347 l 868 347 l 868 521 l 694 521 l 694 694 l 868 694 l 868 868 l 1042 868 l 1042 1042 z "},"¬":{"ha":1389,"x_min":0,"x_max":0,"o":""},"­":{"ha":1389,"x_min":174,"x_max":1042,"o":"m 174 694 l 1042 694 l 1042 521 l 174 521 l 174 694 z "},"®":{"ha":1389,"x_min":0,"x_max":1389,"o":"m 174 868 l 174 174 l 347 174 l 347 868 l 174 868 m 521 694 l 521 521 l 868 521 l 868 694 l 521 694 m 347 174 l 347 0 l 1042 0 l 1042 174 l 868 174 l 868 347 l 521 347 l 521 174 l 347 174 m 347 1042 l 347 868 l 868 868 l 868 694 l 1042 694 l 1042 521 l 868 521 l 868 347 l 1042 347 l 1042 174 l 1215 174 l 1215 868 l 1042 868 l 1042 1042 l 347 1042 m 0 868 l 174 868 l 174 1042 l 347 1042 l 353 1215 l 1042 1215 l 1042 1042 l 1215 1042 l 1215 868 l 1389 868 l 1389 174 l 1215 174 l 1215 0 l 1042 0 l 1036 -174 l 347 -174 l 347 0 l 174 0 l 174 174 l 0 174 l 0 868 z "},"¯":{"ha":1389,"x_min":0,"x_max":0,"o":""},"°":{"ha":1389,"x_min":174,"x_max":1042,"o":"m 347 1042 l 347 521 l 868 521 l 868 1042 l 347 1042 m 347 1215 l 868 1215 l 868 1042 l 1042 1042 l 1042 521 l 868 521 l 868 347 l 347 347 l 347 521 l 174 521 l 174 1042 l 347 1042 l 347 1215 z "},"±":{"ha":1389,"x_min":0,"x_max":0,"o":""},"²":{"ha":1389,"x_min":174,"x_max":1215,"o":"m 174 868 l 174 1042 l 347 1042 l 347 1215 l 1042 1215 l 1042 1042 l 1215 1036 l 1215 868 l 1042 868 l 1042 694 l 694 694 l 694 521 l 1215 521 l 1215 347 l 174 347 l 174 521 l 347 521 l 347 694 l 694 694 l 694 868 l 868 868 l 868 1042 l 521 1042 l 521 868 l 174 868 z "},"³":{"ha":1389,"x_min":174,"x_max":1215,"o":"m 174 694 l 521 694 l 521 521 l 868 521 l 868 694 l 694 694 l 694 868 l 868 868 l 868 1042 l 521 1042 l 521 868 l 174 868 l 174 1042 l 347 1042 l 347 1215 l 1042 1215 l 1042 1042 l 1215 1042 l 1215 868 l 1042 868 l 1042 694 l 1215 694 l 1215 521 l 1042 521 l 1042 347 l 347 347 l 347 521 l 174 521 l 174 694 z "},"´":{"ha":1389,"x_min":0,"x_max":0,"o":""},"µ":{"ha":1389,"x_min":0,"x_max":0,"o":""},"¶":{"ha":1389,"x_min":0,"x_max":0,"o":""},"·":{"ha":1389,"x_min":347,"x_max":694,"o":"m 347 868 l 694 868 l 694 521 l 347 521 l 347 868 z "},"¸":{"ha":1389,"x_min":0,"x_max":0,"o":""},"¹":{"ha":1389,"x_min":174,"x_max":1215,"o":"m 868 1215 l 868 521 l 1215 521 l 1215 347 l 174 347 l 174 521 l 521 521 l 521 868 l 347 868 l 347 1042 l 521 1042 l 521 1215 l 868 1215 z "},"º":{"ha":1389,"x_min":0,"x_max":0,"o":""},"»":{"ha":1389,"x_min":174,"x_max":1215,"o":"m 174 1042 l 347 1042 l 347 868 l 521 868 l 521 694 l 694 694 l 694 521 l 521 521 l 521 347 l 347 347 l 347 174 l 174 174 l 174 347 l 347 347 l 347 521 l 521 521 l 521 694 l 347 694 l 347 868 l 174 868 l 174 1042 m 694 1042 l 868 1042 l 868 868 l 1042 868 l 1042 694 l 1215 694 l 1215 521 l 1042 521 l 1042 347 l 868 347 l 868 174 l 694 174 l 694 347 l 868 347 l 868 521 l 1042 521 l 1042 694 l 868 694 l 868 868 l 694 868 l 694 1042 z "},"¼":{"ha":1389,"x_min":0,"x_max":0,"o":""},"½":{"ha":1389,"x_min":0,"x_max":0,"o":""},"¾":{"ha":1389,"x_min":0,"x_max":0,"o":""},"¿":{"ha":1389,"x_min":0,"x_max":1215,"o":"m 868 1042 l 347 1042 l 347 1215 l 868 1215 l 868 1042 m 1215 174 l 1042 174 l 1042 0 l 174 0 l 174 174 l 0 174 l 0 521 l 174 521 l 174 694 l 347 694 l 347 868 l 868 868 l 868 694 l 521 694 l 521 521 l 347 521 l 347 174 l 868 174 l 868 521 l 1215 521 l 1215 174 z "},"À":{"ha":1389,"x_min":0,"x_max":1215,"o":"m 347 521 l 347 347 l 868 347 l 868 521 l 694 521 l 694 694 l 521 694 l 521 521 l 347 521 m 0 521 l 174 521 l 174 694 l 347 694 l 347 868 l 521 868 l 521 1042 l 347 1042 l 347 1215 l 521 1215 l 521 1042 l 694 1042 l 694 868 l 868 868 l 868 694 l 1042 694 l 1042 521 l 1215 521 l 1215 0 l 868 0 l 868 174 l 347 174 l 347 0 l 0 0 l 0 521 z "},"Á":{"ha":1389,"x_min":0,"x_max":1215,"o":"m 347 521 l 347 347 l 868 347 l 868 521 l 694 521 l 694 694 l 521 694 l 521 521 l 347 521 m 0 521 l 174 521 l 174 694 l 347 694 l 347 868 l 521 868 l 521 1042 l 694 1042 l 694 1215 l 868 1215 l 868 1042 l 694 1042 l 694 868 l 868 868 l 868 694 l 1042 694 l 1042 521 l 1215 521 l 1215 0 l 868 0 l 868 174 l 347 174 l 347 0 l 0 0 l 0 521 z "},"Â":{"ha":1389,"x_min":0,"x_max":1215,"o":"m 347 521 l 347 347 l 868 347 l 868 521 l 694 521 l 694 694 l 521 694 l 521 521 l 347 521 m 347 1042 l 347 868 l 868 868 l 868 1042 l 347 1042 m 0 521 l 174 521 l 174 694 l 347 694 l 347 868 l 174 868 l 174 1042 l 347 1042 l 347 1215 l 868 1215 l 868 1042 l 1042 1042 l 1042 868 l 868 868 l 868 694 l 1042 694 l 1042 521 l 1215 521 l 1215 0 l 868 0 l 868 174 l 347 174 l 347 0 l 0 0 l 0 521 z "},"Ã":{"ha":1389,"x_min":0,"x_max":1215,"o":"m 347 1042 l 347 868 l 521 868 l 521 1042 l 347 1042 m 347 521 l 347 347 l 868 347 l 868 521 l 694 521 l 694 694 l 521 694 l 521 521 l 347 521 m 0 521 l 174 521 l 174 694 l 347 694 l 347 868 l 174 868 l 174 1042 l 347 1042 l 347 1215 l 694 1215 l 694 1042 l 868 1042 l 868 1215 l 1042 1215 l 1042 1042 l 868 1042 l 868 694 l 1042 694 l 1042 521 l 1215 521 l 1215 0 l 868 0 l 868 174 l 347 174 l 347 0 l 0 0 l 0 521 z "},"Ä":{"ha":1389,"x_min":0,"x_max":1215,"o":"m 521 1215 l 521 1042 l 347 1042 l 347 1215 l 521 1215 m 347 521 l 347 347 l 868 347 l 868 521 l 694 521 l 694 694 l 521 694 l 521 521 l 347 521 m 868 1215 l 868 1042 l 694 1042 l 694 1215 l 868 1215 m 0 521 l 174 521 l 174 694 l 347 694 l 347 868 l 868 868 l 868 694 l 1042 694 l 1042 521 l 1215 521 l 1215 0 l 868 0 l 868 174 l 347 174 l 347 0 l 0 0 l 0 521 z "},"Å":{"ha":1389,"x_min":0,"x_max":1215,"o":"m 521 1042 l 521 868 l 694 868 l 694 1042 l 521 1042 m 347 521 l 347 347 l 868 347 l 868 521 l 694 521 l 694 694 l 521 694 l 521 521 l 347 521 m 0 521 l 174 521 l 174 694 l 347 694 l 347 1042 l 521 1042 l 521 1215 l 694 1215 l 694 1042 l 868 1042 l 868 694 l 1042 694 l 1042 521 l 1215 521 l 1215 0 l 868 0 l 868 174 l 347 174 l 347 0 l 0 0 l 0 521 z "},"Æ":{"ha":1389,"x_min":0,"x_max":1215,"o":"m 347 868 l 347 521 l 521 521 l 521 868 l 347 868 m 0 868 l 174 868 l 174 1042 l 347 1042 l 353 1215 l 1215 1215 l 1215 1042 l 868 1042 l 868 694 l 1042 694 l 1042 521 l 868 521 l 868 174 l 1215 174 l 1215 0 l 521 0 l 521 347 l 347 347 l 347 0 l 0 0 l 0 868 z "},"Ç":{"ha":1389,"x_min":0,"x_max":1215,"o":"m 0 868 l 174 868 l 179 1042 l 347 1042 l 353 1215 l 1042 1215 l 1042 1042 l 1215 1042 l 1215 868 l 868 868 l 868 1042 l 521 1042 l 521 868 l 347 868 l 347 521 l 521 521 l 521 347 l 868 347 l 868 521 l 1215 521 l 1215 347 l 1042 347 l 1042 174 l 868 174 l 868 0 l 694 0 l 694 -174 l 521 -174 l 521 0 l 694 0 l 694 174 l 347 174 l 347 347 l 174 347 l 174 521 l 0 521 l 0 868 z "},"È":{"ha":1389,"x_min":174,"x_max":1215,"o":"m 694 1215 l 694 1042 l 868 1042 l 868 868 l 1215 868 l 1215 694 l 521 694 l 521 521 l 1042 521 l 1042 347 l 521 347 l 521 174 l 1215 174 l 1215 0 l 174 0 l 174 868 l 694 868 l 694 1042 l 521 1042 l 521 1215 l 694 1215 z "},"É":{"ha":1389,"x_min":174,"x_max":1215,"o":"m 868 1215 l 868 1042 l 694 1042 l 694 868 l 1215 868 l 1215 694 l 521 694 l 521 521 l 1042 521 l 1042 347 l 521 347 l 521 174 l 1215 174 l 1215 0 l 174 0 l 174 868 l 521 868 l 521 1042 l 694 1042 l 694 1215 l 868 1215 z "},"Ê":{"ha":1389,"x_min":174,"x_max":1215,"o":"m 521 1042 l 521 868 l 868 868 l 868 1042 l 521 1042 m 868 1215 l 868 1042 l 1042 1042 l 1042 868 l 1215 863 l 1215 694 l 521 694 l 521 521 l 1042 521 l 1042 347 l 521 347 l 521 174 l 1215 174 l 1215 0 l 174 0 l 174 868 l 347 868 l 347 1042 l 521 1042 l 521 1215 l 868 1215 z "},"Ë":{"ha":1389,"x_min":174,"x_max":1215,"o":"m 694 1215 l 694 1042 l 521 1042 l 521 1215 l 694 1215 m 1042 1215 l 1042 1042 l 868 1042 l 868 1215 l 1042 1215 m 174 868 l 1215 868 l 1215 694 l 521 694 l 521 521 l 1042 521 l 1042 347 l 521 347 l 521 174 l 1215 174 l 1215 0 l 174 0 l 174 868 z "},"Ì":{"ha":1389,"x_min":174,"x_max":1215,"o":"m 694 1215 l 694 1042 l 868 1042 l 868 868 l 1215 868 l 1215 694 l 868 694 l 868 174 l 1215 174 l 1215 0 l 174 0 l 174 174 l 521 174 l 521 694 l 174 694 l 174 868 l 694 868 l 694 1042 l 521 1042 l 521 1215 l 694 1215 z "},"Í":{"ha":1389,"x_min":174,"x_max":1215,"o":"m 868 1215 l 868 1042 l 694 1042 l 694 868 l 1215 868 l 1215 694 l 868 694 l 868 174 l 1215 174 l 1215 0 l 174 0 l 174 174 l 521 174 l 521 694 l 174 694 l 174 868 l 521 868 l 521 1042 l 694 1042 l 694 1215 l 868 1215 z "},"Î":{"ha":1389,"x_min":174,"x_max":1215,"o":"m 521 1042 l 521 868 l 868 868 l 868 1042 l 521 1042 m 868 1215 l 868 1042 l 1042 1042 l 1042 868 l 1215 863 l 1215 694 l 868 694 l 868 174 l 1215 174 l 1215 0 l 174 0 l 174 174 l 521 174 l 521 694 l 174 694 l 174 868 l 347 868 l 347 1042 l 521 1042 l 521 1215 l 868 1215 z "},"Ï":{"ha":1389,"x_min":174,"x_max":1215,"o":"m 521 1215 l 521 1042 l 347 1042 l 347 1215 l 521 1215 m 1042 1215 l 1042 1042 l 868 1042 l 868 1215 l 1042 1215 m 174 868 l 1215 868 l 1215 694 l 868 694 l 868 174 l 1215 174 l 1215 0 l 174 0 l 174 174 l 521 174 l 521 694 l 174 694 l 174 868 z "},"Ð":{"ha":1389,"x_min":0,"x_max":1215,"o":"m 521 521 l 521 174 l 694 174 l 694 347 l 868 347 l 868 868 l 694 868 l 694 1042 l 521 1042 l 521 694 l 694 694 l 694 521 l 521 521 m 0 694 l 174 694 l 179 1215 l 868 1215 l 868 1042 l 1042 1042 l 1042 868 l 1215 868 l 1215 347 l 1042 347 l 1042 174 l 868 174 l 868 0 l 174 0 l 174 521 l 0 521 l 0 694 z "},"Ñ":{"ha":1389,"x_min":0,"x_max":1215,"o":"m 347 1042 l 347 694 l 521 694 l 521 521 l 694 521 l 694 347 l 868 347 l 868 868 l 521 868 l 521 1042 l 347 1042 m 0 868 l 174 868 l 174 1042 l 347 1042 l 353 1215 l 694 1215 l 694 1042 l 868 1042 l 868 1215 l 1042 1215 l 1042 1042 l 868 1042 l 868 868 l 1215 868 l 1215 0 l 868 0 l 868 174 l 694 174 l 694 347 l 521 347 l 521 521 l 347 521 l 347 0 l 0 0 l 0 868 z "},"Ò":{"ha":1389,"x_min":0,"x_max":1215,"o":"m 347 694 l 347 174 l 868 174 l 868 694 l 347 694 m 0 694 l 174 694 l 174 868 l 521 868 l 521 1042 l 347 1042 l 347 1215 l 521 1215 l 521 1042 l 694 1042 l 694 868 l 1042 868 l 1042 694 l 1215 694 l 1215 174 l 1042 174 l 1042 0 l 174 0 l 174 174 l 0 174 l 0 694 z "},"Ó":{"ha":1389,"x_min":0,"x_max":1215,"o":"m 347 694 l 347 174 l 868 174 l 868 694 l 347 694 m 0 694 l 174 694 l 174 868 l 521 868 l 521 1042 l 694 1042 l 694 1215 l 868 1215 l 868 1042 l 694 1042 l 694 868 l 1042 868 l 1042 694 l 1215 694 l 1215 174 l 1042 174 l 1042 0 l 174 0 l 174 174 l 0 174 l 0 694 z "},"Ô":{"ha":1389,"x_min":0,"x_max":1215,"o":"m 347 694 l 347 174 l 868 174 l 868 694 l 347 694 m 347 1042 l 347 868 l 868 868 l 868 1042 l 347 1042 m 0 694 l 174 694 l 174 1042 l 347 1042 l 347 1215 l 868 1215 l 868 1042 l 1042 1042 l 1042 694 l 1215 694 l 1215 174 l 1042 174 l 1042 0 l 174 0 l 174 174 l 0 174 l 0 694 z "},"Õ":{"ha":1389,"x_min":0,"x_max":1215,"o":"m 347 1042 l 347 868 l 521 868 l 521 1042 l 347 1042 m 347 694 l 347 174 l 868 174 l 868 694 l 347 694 m 0 694 l 174 694 l 174 1042 l 347 1042 l 353 1215 l 694 1215 l 694 1042 l 868 1042 l 868 1215 l 1042 1215 l 1042 1042 l 868 1042 l 868 868 l 1042 863 l 1042 694 l 1215 694 l 1215 174 l 1042 174 l 1042 0 l 174 0 l 174 174 l 0 174 l 0 694 z "},"Ö":{"ha":1389,"x_min":0,"x_max":1215,"o":"m 521 1215 l 521 1042 l 347 1042 l 347 1215 l 521 1215 m 347 694 l 347 174 l 868 174 l 868 694 l 347 694 m 868 1215 l 868 1042 l 694 1042 l 694 1215 l 868 1215 m 0 694 l 174 694 l 179 868 l 1042 868 l 1042 694 l 1215 694 l 1215 174 l 1042 174 l 1042 0 l 174 0 l 174 174 l 0 174 l 0 694 z "},"×":{"ha":1389,"x_min":174,"x_max":1042,"o":"m 174 1042 l 347 1042 l 347 868 l 521 868 l 521 694 l 694 694 l 694 868 l 868 868 l 868 1042 l 1042 1042 l 1042 868 l 868 868 l 868 694 l 694 694 l 694 521 l 868 521 l 868 347 l 1042 347 l 1042 174 l 868 174 l 868 347 l 694 347 l 694 521 l 521 521 l 521 347 l 347 347 l 347 174 l 174 174 l 174 347 l 347 347 l 347 521 l 521 521 l 521 694 l 347 694 l 347 868 l 174 868 l 174 1042 z "},"Ø":{"ha":1389,"x_min":0,"x_max":1215,"o":"m 347 347 l 347 174 l 868 174 l 868 694 l 694 694 l 694 521 l 521 521 l 521 347 l 347 347 m 347 1042 l 347 521 l 521 521 l 521 694 l 694 694 l 694 868 l 868 868 l 868 1042 l 347 1042 m 0 1042 l 174 1042 l 179 1215 l 1042 1215 l 1042 1042 l 1215 1042 l 1215 174 l 1042 174 l 1042 0 l 174 0 l 174 174 l 0 174 l 0 1042 z "},"Ù":{"ha":1389,"x_min":0,"x_max":1215,"o":"m 521 1215 l 521 1042 l 694 1042 l 694 868 l 521 868 l 521 1042 l 347 1042 l 347 1215 l 521 1215 m 0 868 l 347 868 l 347 174 l 868 174 l 868 868 l 1215 868 l 1215 174 l 1042 174 l 1042 0 l 174 0 l 174 174 l 0 174 l 0 868 z "},"Ú":{"ha":1389,"x_min":0,"x_max":1215,"o":"m 868 1215 l 868 1042 l 694 1042 l 694 868 l 521 868 l 521 1042 l 694 1042 l 694 1215 l 868 1215 m 0 868 l 347 868 l 347 174 l 868 174 l 868 868 l 1215 868 l 1215 174 l 1042 174 l 1042 0 l 174 0 l 174 174 l 0 174 l 0 868 z "},"Û":{"ha":1389,"x_min":0,"x_max":1215,"o":"m 868 1215 l 868 1042 l 1042 1042 l 1042 868 l 868 868 l 868 1042 l 347 1042 l 347 868 l 174 868 l 174 1042 l 347 1042 l 347 1215 l 868 1215 m 0 694 l 347 694 l 347 174 l 868 174 l 868 694 l 1215 694 l 1215 174 l 1042 174 l 1042 0 l 174 0 l 174 174 l 0 174 l 0 694 z "},"Ü":{"ha":1389,"x_min":0,"x_max":1215,"o":"m 521 1215 l 521 1042 l 347 1042 l 347 1215 l 521 1215 m 868 1215 l 868 1042 l 694 1042 l 694 1215 l 868 1215 m 0 868 l 347 868 l 347 174 l 868 174 l 868 868 l 1215 868 l 1215 174 l 1042 174 l 1042 0 l 174 0 l 174 174 l 0 174 l 0 868 z "},"Ý":{"ha":1389,"x_min":174,"x_max":1215,"o":"m 868 1215 l 868 1042 l 694 1042 l 694 868 l 521 868 l 521 521 l 868 521 l 868 868 l 1215 868 l 1215 521 l 1042 521 l 1042 347 l 868 347 l 868 0 l 521 0 l 521 347 l 347 347 l 347 521 l 174 521 l 174 868 l 521 868 l 521 1042 l 694 1042 l 694 1215 l 868 1215 z "},"Þ":{"ha":1389,"x_min":0,"x_max":1215,"o":"m 347 868 l 347 347 l 868 347 l 868 868 l 347 868 m 0 1215 l 347 1215 l 347 1042 l 1042 1042 l 1042 868 l 1215 868 l 1215 347 l 1042 347 l 1042 174 l 347 174 l 347 0 l 0 0 l 0 1215 z "},"ß":{"ha":1389,"x_min":0,"x_max":1215,"o":"m 347 1042 l 347 521 l 521 521 l 521 347 l 868 347 l 868 694 l 694 694 l 694 868 l 868 868 l 868 1042 l 347 1042 m 0 1042 l 174 1042 l 179 1215 l 1042 1215 l 1042 1042 l 1215 1042 l 1215 868 l 1042 868 l 1042 694 l 1215 694 l 1215 347 l 1042 347 l 1042 174 l 521 174 l 521 347 l 347 347 l 347 0 l 0 0 l 0 1042 z "},"à":{"ha":1389,"x_min":174,"x_max":1215,"o":"m 521 694 l 521 174 l 694 174 l 694 694 l 521 694 m 521 1215 l 521 1042 l 694 1042 l 694 868 l 1042 868 l 1042 174 l 1215 174 l 1215 0 l 868 0 l 868 174 l 694 174 l 694 0 l 347 0 l 347 174 l 174 174 l 174 694 l 347 694 l 347 868 l 521 868 l 521 1042 l 347 1042 l 347 1215 l 521 1215 z "},"á":{"ha":1389,"x_min":174,"x_max":1215,"o":"m 521 694 l 521 174 l 694 174 l 694 694 l 521 694 m 868 1215 l 868 1042 l 694 1042 l 694 868 l 1042 868 l 1042 174 l 1215 174 l 1215 0 l 868 0 l 868 174 l 694 174 l 694 0 l 347 0 l 347 174 l 174 174 l 174 694 l 347 694 l 347 868 l 521 868 l 521 1042 l 694 1042 l 694 1215 l 868 1215 z "},"â":{"ha":1389,"x_min":174,"x_max":1215,"o":"m 521 694 l 521 174 l 694 174 l 694 694 l 521 694 m 347 1042 l 347 868 l 868 868 l 868 1042 l 347 1042 m 868 1215 l 868 1042 l 1042 1042 l 1042 174 l 1215 174 l 1215 0 l 868 0 l 868 174 l 694 174 l 694 0 l 347 0 l 347 174 l 174 174 l 174 694 l 347 694 l 347 868 l 174 868 l 174 1042 l 347 1042 l 347 1215 l 868 1215 z "},"ã":{"ha":1389,"x_min":174,"x_max":1215,"o":"m 347 1042 l 347 868 l 521 868 l 521 1042 l 347 1042 m 521 694 l 521 174 l 694 174 l 694 694 l 521 694 m 694 1215 l 694 1042 l 868 1042 l 868 1215 l 1042 1215 l 1042 1042 l 868 1042 l 868 868 l 1042 868 l 1042 174 l 1215 174 l 1215 0 l 868 0 l 868 174 l 694 174 l 694 0 l 347 0 l 347 174 l 174 174 l 174 694 l 347 694 l 347 868 l 174 868 l 174 1042 l 347 1042 l 347 1215 l 694 1215 z "},"ä":{"ha":1389,"x_min":174,"x_max":1215,"o":"m 521 1215 l 521 1042 l 347 1042 l 347 1215 l 521 1215 m 521 694 l 521 174 l 694 174 l 694 694 l 521 694 m 868 1215 l 868 1042 l 694 1042 l 694 1215 l 868 1215 m 347 868 l 1042 868 l 1042 174 l 1215 174 l 1215 0 l 868 0 l 868 174 l 694 174 l 694 0 l 347 0 l 347 174 l 174 174 l 174 694 l 347 694 l 347 868 z "},"å":{"ha":1389,"x_min":174,"x_max":1215,"o":"m 521 521 l 521 174 l 694 174 l 694 521 l 521 521 m 521 1042 l 521 868 l 694 868 l 694 1042 l 521 1042 m 694 1215 l 694 1042 l 868 1042 l 868 868 l 694 868 l 694 694 l 1042 694 l 1042 174 l 1215 174 l 1215 0 l 868 0 l 868 174 l 694 174 l 694 0 l 347 0 l 347 174 l 174 174 l 174 521 l 347 521 l 347 694 l 521 694 l 521 868 l 347 868 l 347 1042 l 521 1042 l 521 1215 l 694 1215 z "},"æ":{"ha":1389,"x_min":0,"x_max":1215,"o":"m 347 347 l 347 174 l 521 174 l 521 347 l 347 347 m 868 694 l 868 521 l 1042 521 l 1042 694 l 868 694 m 0 347 l 174 347 l 174 521 l 521 521 l 521 694 l 174 694 l 174 868 l 1042 868 l 1042 694 l 1215 694 l 1215 347 l 868 347 l 868 174 l 1215 174 l 1215 0 l 174 0 l 174 174 l 0 174 l 0 347 z "},"ç":{"ha":1389,"x_min":174,"x_max":1042,"o":"m 347 1042 l 868 1042 l 868 868 l 1042 868 l 1042 694 l 694 694 l 694 868 l 521 868 l 521 694 l 347 694 l 347 521 l 521 521 l 521 347 l 868 347 l 868 521 l 1042 521 l 1042 347 l 868 347 l 868 174 l 694 174 l 694 0 l 521 0 l 521 -174 l 347 -174 l 347 0 l 521 0 l 521 174 l 347 179 l 347 347 l 174 347 l 174 868 l 347 868 l 347 1042 z "},"è":{"ha":1389,"x_min":174,"x_max":1042,"o":"m 521 694 l 521 521 l 868 521 l 868 694 l 521 694 m 521 1215 l 521 1042 l 694 1042 l 694 868 l 868 863 l 868 694 l 1042 694 l 1042 347 l 521 347 l 521 174 l 868 174 l 868 0 l 347 0 l 347 174 l 174 174 l 174 694 l 347 694 l 347 868 l 521 868 l 521 1042 l 347 1042 l 347 1215 l 521 1215 z "},"é":{"ha":1389,"x_min":174,"x_max":1042,"o":"m 521 694 l 521 521 l 868 521 l 868 694 l 521 694 m 868 1215 l 868 1042 l 694 1042 l 694 868 l 868 863 l 868 694 l 1042 694 l 1042 347 l 521 347 l 521 174 l 868 174 l 868 0 l 347 0 l 347 174 l 174 174 l 174 694 l 347 694 l 347 868 l 521 868 l 521 1042 l 694 1042 l 694 1215 l 868 1215 z "},"ê":{"ha":1389,"x_min":174,"x_max":1042,"o":"m 521 694 l 521 521 l 868 521 l 868 694 l 521 694 m 347 1042 l 347 868 l 868 868 l 868 1042 l 347 1042 m 868 1215 l 868 1042 l 1042 1042 l 1042 868 l 868 868 l 868 694 l 1042 694 l 1042 347 l 521 347 l 521 174 l 868 174 l 868 0 l 347 0 l 347 174 l 174 174 l 174 694 l 347 694 l 347 868 l 174 868 l 174 1042 l 347 1042 l 347 1215 l 868 1215 z "},"ë":{"ha":1389,"x_min":174,"x_max":1042,"o":"m 521 1215 l 521 1042 l 347 1042 l 347 1215 l 521 1215 m 521 694 l 521 521 l 868 521 l 868 694 l 521 694 m 868 1215 l 868 1042 l 694 1042 l 694 1215 l 868 1215 m 347 868 l 868 868 l 868 694 l 1042 694 l 1042 347 l 521 347 l 521 174 l 868 174 l 868 0 l 347 0 l 347 174 l 174 174 l 174 694 l 347 694 l 347 868 z "},"ì":{"ha":1389,"x_min":347,"x_max":868,"o":"m 347 694 l 868 694 l 868 0 l 521 0 l 521 521 l 347 521 l 347 694 m 694 1215 l 694 1042 l 868 1042 l 868 868 l 694 868 l 694 1042 l 521 1042 l 521 1215 l 694 1215 z "},"í":{"ha":1389,"x_min":347,"x_max":868,"o":"m 347 694 l 868 694 l 868 0 l 521 0 l 521 521 l 347 521 l 347 694 m 868 1215 l 868 1042 l 694 1042 l 694 868 l 521 868 l 521 1042 l 694 1042 l 694 1215 l 868 1215 z "},"î":{"ha":1389,"x_min":174,"x_max":1042,"o":"m 347 694 l 868 694 l 868 0 l 521 0 l 521 521 l 347 521 l 347 694 m 868 1215 l 868 1042 l 1042 1042 l 1042 868 l 868 868 l 868 1042 l 347 1042 l 347 868 l 174 868 l 174 1042 l 347 1042 l 347 1215 l 868 1215 z "},"ï":{"ha":1389,"x_min":347,"x_max":868,"o":"m 347 1042 l 521 1042 l 521 868 l 347 868 l 347 1042 m 347 694 l 868 694 l 868 0 l 521 0 l 521 521 l 347 521 l 347 694 m 694 1042 l 868 1042 l 868 868 l 694 868 l 694 1042 z "},"ð":{"ha":1389,"x_min":174,"x_max":1042,"o":"m 347 1042 l 347 868 l 521 868 l 521 1042 l 347 1042 m 521 521 l 521 174 l 694 174 l 694 521 l 521 521 m 521 868 l 521 694 l 694 694 l 694 868 l 521 868 m 694 1215 l 694 1042 l 868 1042 l 868 1215 l 1042 1215 l 1042 1042 l 868 1042 l 868 868 l 1042 863 l 1042 174 l 868 174 l 868 0 l 347 0 l 347 174 l 174 174 l 174 521 l 347 521 l 347 868 l 174 868 l 174 1042 l 347 1042 l 347 1215 l 694 1215 z "},"ñ":{"ha":1389,"x_min":174,"x_max":1215,"o":"m 174 694 l 347 694 l 347 521 l 521 521 l 521 694 l 1042 694 l 1042 521 l 1215 521 l 1215 0 l 868 0 l 868 521 l 694 521 l 694 0 l 347 0 l 347 521 l 174 521 l 174 694 m 868 1215 l 868 1042 l 1042 1042 l 1042 1215 l 1215 1215 l 1215 1042 l 1042 1042 l 1042 868 l 694 868 l 694 1042 l 521 1042 l 521 868 l 347 868 l 347 1042 l 521 1042 l 521 1215 l 868 1215 z "},"ò":{"ha":1389,"x_min":174,"x_max":1042,"o":"m 521 694 l 521 174 l 694 174 l 694 694 l 521 694 m 521 1215 l 521 1042 l 694 1042 l 694 868 l 868 863 l 868 694 l 1042 694 l 1042 174 l 868 174 l 868 0 l 347 0 l 347 174 l 174 174 l 174 694 l 347 694 l 347 868 l 521 868 l 521 1042 l 347 1042 l 347 1215 l 521 1215 z "},"ó":{"ha":1389,"x_min":174,"x_max":1042,"o":"m 521 694 l 521 174 l 694 174 l 694 694 l 521 694 m 868 1215 l 868 1042 l 694 1042 l 694 868 l 868 863 l 868 694 l 1042 694 l 1042 174 l 868 174 l 868 0 l 347 0 l 347 174 l 174 174 l 174 694 l 347 694 l 347 868 l 521 868 l 521 1042 l 694 1042 l 694 1215 l 868 1215 z "},"ô":{"ha":1389,"x_min":174,"x_max":1042,"o":"m 521 694 l 521 174 l 694 174 l 694 694 l 521 694 m 347 1042 l 347 868 l 868 868 l 868 1042 l 347 1042 m 868 1215 l 868 1042 l 1042 1042 l 1042 868 l 868 868 l 868 694 l 1042 694 l 1042 174 l 868 174 l 868 0 l 347 0 l 347 174 l 174 174 l 174 694 l 347 694 l 347 868 l 174 868 l 174 1042 l 347 1042 l 347 1215 l 868 1215 z "},"õ":{"ha":1389,"x_min":174,"x_max":1042,"o":"m 347 1042 l 347 868 l 521 868 l 521 1042 l 347 1042 m 521 694 l 521 174 l 694 174 l 694 694 l 521 694 m 694 1215 l 694 1042 l 868 1042 l 868 1215 l 1042 1215 l 1042 1042 l 868 1042 l 868 694 l 1042 694 l 1042 174 l 868 174 l 868 0 l 347 0 l 347 174 l 174 174 l 174 694 l 347 694 l 347 868 l 174 868 l 174 1042 l 347 1042 l 347 1215 l 694 1215 z "},"ö":{"ha":1389,"x_min":174,"x_max":1042,"o":"m 521 1215 l 521 1042 l 347 1042 l 347 1215 l 521 1215 m 521 694 l 521 174 l 694 174 l 694 694 l 521 694 m 868 1215 l 868 1042 l 694 1042 l 694 1215 l 868 1215 m 347 868 l 868 868 l 868 694 l 1042 694 l 1042 174 l 868 174 l 868 0 l 347 0 l 347 174 l 174 174 l 174 694 l 347 694 l 347 868 z "},"÷":{"ha":1389,"x_min":174,"x_max":1042,"o":"m 521 347 l 694 347 l 694 174 l 521 174 l 521 347 m 521 1042 l 694 1042 l 694 868 l 521 868 l 521 1042 m 174 694 l 1042 694 l 1042 521 l 174 521 l 174 694 z "},"ø":{"ha":1389,"x_min":0,"x_max":1215,"o":"m 521 347 l 521 174 l 694 174 l 694 347 l 521 347 m 521 694 l 521 521 l 694 521 l 694 694 l 521 694 m 0 174 l 174 174 l 174 694 l 347 694 l 353 868 l 868 868 l 868 694 l 1042 694 l 1042 868 l 1215 868 l 1215 694 l 1042 694 l 1042 174 l 868 174 l 868 0 l 347 0 l 347 174 l 174 174 l 174 0 l 0 0 l 0 174 z "},"ù":{"ha":1389,"x_min":174,"x_max":1215,"o":"m 521 868 l 521 174 l 694 174 l 694 868 l 521 868 m 521 1215 l 521 1042 l 694 1042 l 694 868 l 1042 868 l 1042 174 l 1215 174 l 1215 0 l 868 0 l 868 174 l 694 174 l 694 0 l 347 0 l 347 174 l 174 174 l 174 868 l 521 868 l 521 1042 l 347 1042 l 347 1215 l 521 1215 z "},"ú":{"ha":1389,"x_min":174,"x_max":1215,"o":"m 521 868 l 521 174 l 694 174 l 694 868 l 521 868 m 868 1215 l 868 1042 l 694 1042 l 694 868 l 1042 868 l 1042 174 l 1215 174 l 1215 0 l 868 0 l 868 174 l 694 174 l 694 0 l 347 0 l 347 174 l 174 174 l 174 868 l 521 868 l 521 1042 l 694 1042 l 694 1215 l 868 1215 z "},"û":{"ha":1389,"x_min":174,"x_max":1215,"o":"m 868 1215 l 868 1042 l 1042 1042 l 1042 868 l 868 868 l 868 1042 l 347 1042 l 347 868 l 174 868 l 174 1042 l 347 1042 l 347 1215 l 868 1215 m 174 694 l 521 694 l 521 174 l 694 174 l 694 694 l 1042 694 l 1042 174 l 1215 174 l 1215 0 l 868 0 l 868 174 l 694 174 l 694 0 l 347 0 l 347 174 l 174 174 l 174 694 z "},"ü":{"ha":1389,"x_min":174,"x_max":1215,"o":"m 521 1215 l 521 1042 l 347 1042 l 347 1215 l 521 1215 m 868 1215 l 868 1042 l 694 1042 l 694 1215 l 868 1215 m 174 868 l 521 868 l 521 174 l 694 174 l 694 868 l 1042 868 l 1042 174 l 1215 174 l 1215 0 l 868 0 l 868 174 l 694 174 l 694 0 l 347 0 l 347 174 l 174 174 l 174 868 z "},"ý":{"ha":1389,"x_min":174,"x_max":1215,"o":"m 1042 1215 l 1042 1042 l 868 1042 l 868 868 l 694 868 l 694 1042 l 868 1042 l 868 1215 l 1042 1215 m 174 868 l 521 868 l 521 694 l 694 694 l 694 521 l 868 521 l 868 694 l 1042 694 l 1042 868 l 1215 868 l 1215 694 l 1042 694 l 1042 347 l 868 347 l 868 174 l 694 174 l 694 -174 l 347 -174 l 347 0 l 521 0 l 521 174 l 694 174 l 694 347 l 521 347 l 521 521 l 347 521 l 347 694 l 174 694 l 174 868 z "},"þ":{"ha":1389,"x_min":174,"x_max":1215,"o":"m 694 694 l 694 347 l 868 347 l 868 694 l 694 694 m 521 1215 l 521 1042 l 694 1036 l 694 868 l 1042 868 l 1042 694 l 1215 694 l 1215 347 l 1042 347 l 1042 174 l 694 174 l 694 -174 l 347 -174 l 347 1042 l 174 1042 l 174 1215 l 521 1215 z "},"ÿ":{"ha":1389,"x_min":174,"x_max":1215,"o":"m 694 1215 l 694 1042 l 521 1042 l 521 1215 l 694 1215 m 1042 1215 l 1042 1042 l 868 1042 l 868 1215 l 1042 1215 m 174 868 l 521 868 l 521 694 l 694 694 l 694 521 l 868 521 l 868 694 l 1042 694 l 1042 868 l 1215 868 l 1215 694 l 1042 694 l 1042 347 l 868 347 l 868 174 l 694 174 l 694 -174 l 347 -174 l 347 0 l 521 0 l 521 174 l 694 174 l 694 347 l 521 347 l 521 521 l 347 521 l 347 694 l 174 694 l 174 868 z "},"ı":{"ha":1389,"x_min":0,"x_max":0,"o":""},"Ł":{"ha":1389,"x_min":0,"x_max":0,"o":""},"ł":{"ha":1389,"x_min":0,"x_max":0,"o":""},"Œ":{"ha":1389,"x_min":0,"x_max":1215,"o":"m 0 1042 l 174 1042 l 174 1215 l 521 1215 l 521 1042 l 694 1042 l 694 1215 l 1042 1215 l 1042 1042 l 1215 1042 l 1215 521 l 1042 521 l 1042 347 l 868 347 l 868 174 l 694 174 l 694 0 l 521 0 l 521 174 l 347 174 l 347 347 l 174 347 l 174 521 l 0 521 l 0 1042 z "},"œ":{"ha":1389,"x_min":174,"x_max":1215,"o":"m 868 1215 l 868 1042 l 1042 1042 l 1042 868 l 1215 868 l 1215 694 l 1042 694 l 1042 521 l 868 521 l 868 694 l 1042 694 l 1042 868 l 868 868 l 868 1042 l 694 1042 l 694 174 l 521 174 l 521 0 l 347 0 l 347 174 l 174 174 l 174 347 l 347 347 l 347 521 l 521 521 l 521 1215 l 868 1215 z "},"Š":{"ha":1389,"x_min":0,"x_max":1215,"o":"m 0 868 l 174 868 l 180 1042 l 347 1042 l 353 1215 l 1042 1215 l 1042 1042 l 1215 1042 l 1215 868 l 868 868 l 868 694 l 521 694 l 521 521 l 868 521 l 868 347 l 1215 347 l 1215 174 l 1042 174 l 1042 0 l 347 0 l 347 174 l 174 174 l 174 347 l 0 347 l 0 868 z "},"š":{"ha":1389,"x_min":0,"x_max":1215,"o":"m 174 521 l 174 347 l 521 347 l 521 868 l 174 868 l 174 694 l 347 694 l 347 521 l 174 521 m 694 521 l 694 347 l 1042 347 l 1042 868 l 694 868 l 694 694 l 868 694 l 868 521 l 694 521 m 0 868 l 174 868 l 174 1042 l 347 1042 l 347 1215 l 868 1215 l 868 1042 l 1042 1042 l 1042 868 l 1215 868 l 1215 0 l 1042 0 l 1042 174 l 868 174 l 862 0 l 521 0 l 521 174 l 347 174 l 347 0 l 0 0 l 0 868 z "},"Ÿ":{"ha":1389,"x_min":174,"x_max":1215,"o":"m 521 1215 l 521 1042 l 347 1042 l 347 1215 l 521 1215 m 1042 1215 l 1042 1042 l 868 1042 l 868 1215 l 1042 1215 m 174 868 l 521 868 l 521 521 l 868 521 l 868 868 l 1215 868 l 1215 521 l 1042 521 l 1042 347 l 868 347 l 868 0 l 521 0 l 521 347 l 347 347 l 347 521 l 174 521 l 174 868 z "},"Ž":{"ha":1389,"x_min":0,"x_max":0,"o":""},"ž":{"ha":1389,"x_min":0,"x_max":0,"o":""},"ƒ":{"ha":1389,"x_min":0,"x_max":0,"o":""},"ˆ":{"ha":1389,"x_min":0,"x_max":0,"o":""},"ˇ":{"ha":1389,"x_min":0,"x_max":0,"o":""},"˘":{"ha":1389,"x_min":0,"x_max":0,"o":""},"˙":{"ha":1389,"x_min":0,"x_max":0,"o":""},"˚":{"ha":1389,"x_min":0,"x_max":0,"o":""},"˛":{"ha":1389,"x_min":0,"x_max":0,"o":""},"˜":{"ha":1389,"x_min":0,"x_max":0,"o":""},"˝":{"ha":1389,"x_min":0,"x_max":0,"o":""},"Δ":{"ha":1389,"x_min":0,"x_max":0,"o":""},"Ω":{"ha":1389,"x_min":0,"x_max":0,"o":""},"π":{"ha":1389,"x_min":0,"x_max":1215,"o":"m 174 521 l 174 347 l 521 347 l 521 868 l 174 868 l 174 694 l 347 694 l 347 521 l 174 521 m 694 521 l 694 347 l 1042 347 l 1042 868 l 694 868 l 694 694 l 868 694 l 868 521 l 694 521 m 0 868 l 174 868 l 174 1042 l 347 1042 l 347 1215 l 868 1215 l 868 1042 l 1042 1042 l 1042 868 l 1215 868 l 1215 0 l 1042 0 l 1042 174 l 868 174 l 862 0 l 521 0 l 521 174 l 347 174 l 347 0 l 0 0 l 0 868 z "},"–":{"ha":1389,"x_min":174,"x_max":1042,"o":"m 174 694 l 1042 694 l 1042 521 l 174 521 l 174 694 z "},"—":{"ha":1389,"x_min":0,"x_max":1389,"o":"m 0 694 l 1389 694 l 1389 521 l 0 521 l 0 694 z "},"‘":{"ha":1389,"x_min":694,"x_max":1042,"o":"m 1042 1215 l 1042 868 l 868 868 l 868 694 l 1042 694 l 1042 521 l 868 521 l 868 694 l 694 694 l 694 1215 l 1042 1215 z "},"’":{"ha":1389,"x_min":174,"x_max":521,"o":"m 521 1215 l 521 694 l 347 694 l 347 521 l 174 521 l 174 694 l 347 694 l 347 868 l 174 868 l 174 1215 l 521 1215 z "},"‚":{"ha":1389,"x_min":0,"x_max":0,"o":""},"“":{"ha":1389,"x_min":174,"x_max":1215,"o":"m 521 1215 l 521 868 l 694 868 l 694 1215 l 1042 1215 l 1042 868 l 1215 868 l 1215 694 l 868 694 l 868 868 l 694 868 l 694 694 l 347 694 l 347 868 l 174 868 l 174 1215 l 521 1215 z "},"”":{"ha":1389,"x_min":0,"x_max":1042,"o":"m 0 868 l 174 868 l 174 1215 l 521 1215 l 521 868 l 694 868 l 694 1215 l 1042 1215 l 1042 868 l 868 868 l 868 694 l 521 694 l 521 868 l 347 868 l 347 694 l 0 694 l 0 868 z "},"„":{"ha":1389,"x_min":0,"x_max":0,"o":""},"†":{"ha":1389,"x_min":0,"x_max":0,"o":""},"‡":{"ha":1389,"x_min":0,"x_max":0,"o":""},"•":{"ha":1389,"x_min":174,"x_max":1042,"o":"m 347 868 l 868 868 l 868 694 l 1042 694 l 1042 347 l 868 347 l 868 174 l 347 174 l 347 347 l 174 347 l 174 694 l 347 694 l 347 868 z "},"…":{"ha":1389,"x_min":0,"x_max":1215,"o":"m 0 521 l 174 521 l 174 174 l 0 174 l 0 521 m 521 521 l 694 521 l 694 174 l 521 174 l 521 521 m 1042 521 l 1215 521 l 1215 174 l 1042 174 l 1042 521 z "},"‰":{"ha":1389,"x_min":0,"x_max":0,"o":""},"‹":{"ha":1389,"x_min":174,"x_max":694,"o":"m 694 868 l 521 868 l 521 694 l 347 694 l 347 521 l 521 521 l 521 347 l 694 347 l 694 174 l 521 174 l 521 347 l 347 347 l 347 521 l 174 521 l 174 694 l 347 694 l 347 868 l 521 868 l 521 1042 l 694 1042 l 694 868 z "},"›":{"ha":1389,"x_min":521,"x_max":1042,"o":"m 694 1042 l 694 868 l 868 868 l 868 694 l 1042 694 l 1042 521 l 868 521 l 868 347 l 694 347 l 694 174 l 521 174 l 521 347 l 694 347 l 694 521 l 868 521 l 868 694 l 694 694 l 694 868 l 521 868 l 521 1042 l 694 1042 z "},"⁄":{"ha":1389,"x_min":0,"x_max":0,"o":""},"™":{"ha":1389,"x_min":0,"x_max":1215,"o":"m 0 1215 l 521 1215 l 521 1042 l 347 1042 l 347 347 l 174 347 l 174 1042 l 0 1042 l 0 1215 m 868 1215 l 868 1042 l 1042 1042 l 1042 1215 l 1215 1215 l 1215 347 l 1042 347 l 1042 694 l 868 694 l 868 347 l 694 347 l 694 1215 l 868 1215 z "},"∂":{"ha":1389,"x_min":0,"x_max":0,"o":""},"∏":{"ha":1389,"x_min":0,"x_max":1215,"o":"m 0 868 l 174 868 l 180 1042 l 347 1042 l 353 1215 l 1042 1215 l 1042 1042 l 1215 1042 l 1215 868 l 868 868 l 868 694 l 521 694 l 521 521 l 868 521 l 868 347 l 1215 347 l 1215 174 l 1042 174 l 1042 0 l 347 0 l 347 174 l 174 174 l 174 347 l 0 347 l 0 868 z "},"∑":{"ha":1389,"x_min":0,"x_max":0,"o":""},"√":{"ha":1389,"x_min":0,"x_max":0,"o":""},"∞":{"ha":1389,"x_min":0,"x_max":0,"o":""},"∫":{"ha":1389,"x_min":0,"x_max":0,"o":""},"≈":{"ha":1389,"x_min":0,"x_max":0,"o":""},"≠":{"ha":1389,"x_min":0,"x_max":0,"o":""},"≤":{"ha":1389,"x_min":0,"x_max":0,"o":""},"≥":{"ha":1389,"x_min":0,"x_max":0,"o":""},"◊":{"ha":1389,"x_min":0,"x_max":0,"o":""},"♥":{"ha":1389,"x_min":0,"x_max":1215,"o":"m 0 1042 l 174 1042 l 174 1215 l 521 1215 l 521 1042 l 694 1042 l 694 1215 l 1042 1215 l 1042 1042 l 1215 1042 l 1215 521 l 1042 521 l 1042 347 l 868 347 l 868 174 l 694 174 l 694 0 l 521 0 l 521 174 l 347 174 l 347 347 l 174 347 l 174 521 l 0 521 l 0 1042 z "},"♪":{"ha":1389,"x_min":174,"x_max":1215,"o":"m 868 1215 l 868 1042 l 1042 1042 l 1042 868 l 1215 868 l 1215 694 l 1042 694 l 1042 521 l 868 521 l 868 694 l 1042 694 l 1042 868 l 868 868 l 868 1042 l 694 1042 l 694 174 l 521 174 l 521 0 l 347 0 l 347 174 l 174 174 l 174 347 l 347 347 l 347 521 l 521 521 l 521 1215 l 868 1215 z "},"":{"ha":1389,"x_min":0,"x_max":0,"o":""},"":{"ha":1389,"x_min":0,"x_max":0,"o":""},"":{"ha":1389,"x_min":0,"x_max":0,"o":""}}}
